<svg width="82" height="82" viewBox="0 0 82 82" fill="none" xmlns="http://www.w3.org/2000/svg">
<g id="trangles">
<g id="darkgroup">
<path id="dark2" d="M59.4902 52.7674C60.1569 53.1523 60.1569 54.1145 59.4902 54.4994L21.9974 76.1459C21.3307 76.5308 20.4974 76.0497 20.4974 75.2799L20.4974 31.9869C20.4974 31.2171 21.3307 30.736 21.9974 31.1209L59.4902 52.7674Z" fill="url(#paint0_linear_114_6)" fillOpacity="0.61"/>
<path id="dark1" d="M22.4485 29.986C21.781 29.6026 21.7787 28.6404 22.4444 28.2539L59.8856 6.51823C60.5514 6.13174 61.3858 6.61088 61.3877 7.38068L61.4907 50.6735C61.4926 51.4433 60.6604 51.9265 59.9928 51.5431L22.4485 29.986Z" fill="url(#paint1_linear_114_6)" fillOpacity="0.56"/>
</g>
</g>
<defs>
<linearGradient id="paint0_linear_114_6" x1="60.9902" y1="53.6334" x2="16.154" y2="38.6154" gradientUnits="userSpaceOnUse">
<stop offset="0.456376" stopColor="#0066FF"/>
<stop offset="1" stopColor="#161BA1" stopOpacity="0"/>
</linearGradient>
<linearGradient id="paint1_linear_114_6" x1="20.9465" y1="29.1235" x2="61.488" y2="50.3847" gradientUnits="userSpaceOnUse">
<stop offset="0.497754" stopColor="#F81111" stopOpacity="0.98"/>
<stop offset="1" stopColor="#00058A" stopOpacity="0"/>
</linearGradient>
</defs>
</svg>
